<svg viewBox="0 0 300 56" height="56" width="300" style="width: 300px; height: 56px; position: absolute; top: 50%; left: 50%; z-index: 0; cursor: pointer; transform: translate(-50%, -50%) scale(0.693333);">
  <g transform="matrix(2.5,0,0,2.5,0,-12)" fill="#475861">
    <g xmlns="http://www.w3.org/2000/svg">
      <rect x="17.471" y="17.979" width="2.621" height="7.168"></rect>
      <rect x="21.838" y="20.91" width="2.621" height="4.237"></rect>
      <rect x="13.103" y="13.996" width="2.621" height="11.151"></rect>
      <rect x="8.735" y="6.828" width="2.621" height="18.318"></rect>
      <rect x="4.368" y="10.524" width="2.621" height="14.623"></rect>
      <rect x="0" y="16.411" width="2.621" height="8.761"></rect>
      <polygon points="28.003,13.865 29.712,12.156 23.402,11.059 24.499,17.369 26.294,15.574 30.291,19.571 32,17.862"/>
    </g>
  </g>
  <g transform="matrix(1.9760607369718157,0,0,1.9760607369718157,94.9440510993941,-23.234524768564185)" fill="#1a3e4d">
    <path d="M2.5586 12.051 l0 27.949 l5.1953 0 l12.383 -21.035 l0 21.035 l5.1953 0 l16.465 -27.949 l-4.9219 0 l-12.48 21.191 l0 -21.191 l-5.1172 0 l-12.48 21.191 l0 -21.191 l-4.2383 0 z M47.24611875 18.945 c-1.9531 1.9531 -2.9297 4.31 -2.9297 7.0703 s0.97656 5.1172 2.9297 7.0703 s4.31 2.9297 7.0703 2.9297 s5.1172 -0.97656 7.0703 -2.9297 s2.9297 -4.31 2.9297 -7.0703 s-0.97656 -5.1172 -2.9297 -7.0703 s-4.31 -2.9297 -7.0703 -2.9297 s-5.1172 0.97656 -7.0703 2.9297 z M44.23831875 36.0937 c-2.7865 -2.7865 -4.1797 -6.1459 -4.1797 -10.078 s1.3932 -7.2916 4.1797 -10.078 s6.1459 -4.1797 10.078 -4.1797 s7.2916 1.3932 10.078 4.1797 s4.1797 6.1459 4.1797 10.078 s-1.3932 7.2916 -4.1797 10.078 s-6.1459 4.1797 -10.078 4.1797 s-7.2916 -1.3932 -10.078 -4.1797 z M71.85551875 12.051 l0 27.949 l14.258 0 l0 -4.2383 l-10.02 0 l0 -23.711 l-4.2383 0 z M89.51176875 12.051 l0 27.949 l4.2383 0 l0 -11.895 l7.7344 0 l0 -4.2383 l-7.7344 0 l0 -7.5781 l10.02 0 l0 -4.2383 l-14.258 0 z"/>
  </g>
</svg>